# xmcd
#
# Track frame offsets:
#	150
#	20286
#	40460
#	54005
#	71913
#	91180
#	104496
#	122471
#	136548
#	148553
#	162432
#	174039
#
# Disc length: 2398 seconds
#
# Revision: 0
# Processed by: cddbd v1.4PL0 Copyright (c) Steve Scherf et al.
# Submitted via: dBpowerAMP V4.0
#
DISCID=92095c0c
DTITLE=John Scooch Cugno - Blues Survivor
DYEAR=1900
DGENRE=Blues
TTITLE0=Smokestack Lightening
TTITLE1=Too Blue For You
TTITLE2=Talk The Talk
TTITLE3=Depend On You
TTITLE4=Old Dog
TTITLE5=You Didn't Come Through
TTITLE6=Blues Bouquet
TTITLE7=Mean Little Woman
TTITLE8=Let Me Go Home Wiskey
TTITLE9=Guess Who
TTITLE10=Idaho Potholes
TTITLE11=Just Slidin
EXTD=
EXTT0=
EXTT1=
EXTT2=
EXTT3=
EXTT4=
EXTT5=
EXTT6=
EXTT7=
EXTT8=
EXTT9=
EXTT10=
EXTT11=
PLAYORDER=
